<svg width="1282" height="747" xmlns="http://www.w3.org/2000/svg" xmlns:xlink="http://www.w3.org/1999/xlink" overflow="hidden"><defs><linearGradient x1="673.236" y1="-106.989" x2="606.764" y2="269.989" gradientUnits="userSpaceOnUse" spreadMethod="reflect" id="fill0"><stop offset="0" stop-color="#E70000"/><stop offset="0.07" stop-color="#E70000"/><stop offset="0.46" stop-color="#8D0207"/><stop offset="1" stop-color="#33030D"/></linearGradient></defs><g transform="translate(1 1)"><path d="M27.1678 0 1252.83 0C1267.84-5.09254e-15 1280 12.1635 1280 27.1678L1280 163 0 163 0 27.1678C-5.09253e-15 12.1635 12.1634-5.09254e-15 27.1678-1.01851e-14Z" fill="url(#fill0)" fill-rule="evenodd"/><rect x="0" y="163" width="1280" height="582" fill="#1A1A1A"/><path d="M20.5001 35.8337C20.5001 26.8129 27.8129 19.5001 36.8337 19.5001L163.166 19.5001C172.187 19.5001 179.5 26.8129 179.5 35.8337L179.5 101.166C179.5 110.187 172.187 117.5 163.166 117.5L36.8337 117.5C27.8129 117.5 20.5001 110.187 20.5001 101.166Z" stroke="#172C51" stroke-width="1.33333" stroke-miterlimit="8" fill="#262626" fill-rule="evenodd"/><text fill="#FCC210" font-family="Segoe UI,Segoe UI_MSFontService,sans-serif" font-weight="700" font-size="24" transform="translate(51.7009 62)">ELIZIUM</text><text fill="#FCC210" font-family="Segoe UI,Segoe UI_MSFontService,sans-serif" font-weight="700" font-size="24" transform="translate(55.2609 91)">HOTELS</text></g></svg>